<svg xmlns="http://www.w3.org/2000/svg" width="257" height="137.328" viewBox="0 0 257 137.328"><g transform="translate(-1216 -561.184)"><g transform="translate(1216 561.184)"><g transform="translate(0 0)"><path d="M116.13,104.246c.533,6.259-1.355,11.537-6.345,15.531a16.422,16.422,0,0,1-24.71-5.156c-3.732-6.909-6.948-14.1-10.348-21.185Q66.458,76.2,58.247,58.942c-.241-.5-.367-1.088-1-1.4Q47.194,83.932,37.15,110.3c-.664,1.743-1.275,3.508-1.985,5.231-2.575,6.244-9.135,9.181-15.193,6.832A11.576,11.576,0,0,1,13.4,107.1Q22.863,81.931,32.46,56.808c2.234-5.814,3.825-11.885,6.852-17.387,3.217-5.849,7.815-9.879,14.533-11.2A18.372,18.372,0,0,1,72.9,36.183c3.79,6.06,6.366,12.758,9.48,19.173,2.4,4.933,4.663,9.928,7.08,14.85,1.375,2.8,2.391,5.778,4.125,8.4a15.205,15.205,0,0,0,.549,1.583q5.707,12.157,11.442,24.3a4.321,4.321,0,0,0,1.512,1.812C110.554,108.684,113.206,108.113,116.13,104.246Z" transform="translate(-12.555 -27.871)" fill="#d8b4a0"/><path d="M117.54,104.273c-2.924,3.867-5.576,4.438-9.038,2.06a4.32,4.32,0,0,1-1.512-1.812q-5.732-12.146-11.442-24.3A15.2,15.2,0,0,1,95,78.636q.059-18.537.122-37.073c.029-7.208,5.066-12.367,11.773-12.091,5.534.227,10.607,4.78,10.635,10.163C117.637,61.18,117.553,82.727,117.54,104.273Z" transform="translate(-13.965 -27.898)" fill="#e32823"/><path d="M59.853,87.953a8.334,8.334,0,1,1-8.48,8.141A8.156,8.156,0,0,1,59.853,87.953Z" transform="translate(-13.219 -28.899)" fill="#d8b4a0"/></g></g><text transform="translate(1329 581)" fill="#a4a4a4" font-size="58" font-family="Orbitron-Regular, Orbitron"><tspan x="0" y="59">SOC</tspan></text><g transform="translate(1312.881 662.762)"><path d="M255.535,296.261a8.007,8.007,0,0,1-7.893-8.031,7.854,7.854,0,1,1,15.7-.063A7.959,7.959,0,0,1,255.535,296.261Z" transform="translate(-197.04 -270.902)" fill="#e32823"/><path d="M332.973,299.589l1.291-1.376c2.821,2.323,5.922,3.529,9.268,1.566,2.414-1.418,2.265-4.05,2.235-6.794-1.907,1.659-3.867,2.615-6.284,2.355a7.61,7.61,0,0,1-5.674-3.076,8.464,8.464,0,0,1,.732-10.376c2.9-3,6.744-3.068,11.139-.123.066-.589.126-1.121.2-1.779h2.212a1.923,1.923,0,0,1,.149.52c-.016,5.019.1,10.044-.112,15.055-.162,3.836-2.1,6.115-5.345,7.026A9.4,9.4,0,0,1,332.973,299.589Zm7.36-6.365a5.453,5.453,0,0,0,5.639-5.646,5.756,5.756,0,0,0-5.593-5.958c-3.137-.045-5.456,2.421-5.464,5.812C334.906,290.888,337.082,293.214,340.333,293.225Z" transform="translate(-231.552 -270.725)" fill="#e32823"/><path d="M299.576,289.162h-2.23l-.164-1.854c-1.907,1.594-3.877,2.605-6.354,2.3a7.55,7.55,0,0,1-5.665-3.343,8.685,8.685,0,0,1,.879-10.4c2.9-2.943,6.519-3,11.184-.065V264.876h2.349Zm-13.213-7.534c.012,3.545,2.212,5.869,5.532,5.844a5.582,5.582,0,0,0,5.536-5.94,5.681,5.681,0,0,0-5.625-5.908C288.586,275.643,286.352,278.108,286.364,281.628Z" transform="translate(-211.783 -264.728)" fill="#e32823"/><path d="M223.271,275.795c0-3.219,0-6.191,0-9.163,0-2.2,0-2.2,2.334-1.8v24.194h-2.241l-.181-1.654c-4.836,2.955-8.812,2.765-11.49-.5a8.689,8.689,0,0,1,.23-10.986C214.855,272.776,218.892,272.68,223.271,275.795Zm.135,5.7c0-3.423-2.338-5.947-5.527-5.975s-5.524,2.47-5.543,5.937c-.02,3.513,2.217,5.919,5.5,5.911A5.513,5.513,0,0,0,223.406,281.5Z" transform="translate(-181.648 -264.626)" fill="#e32823"/><path d="M191.412,290.976l1.443,1.12c-1.51,2.7-4.425,3.917-7.973,3.37a7.55,7.55,0,0,1-6.092-6c-1.3-6.148,3.8-11.3,9.593-9.694a7.252,7.252,0,0,1,5.139,7.622c-.09.987-.724.824-1.309.826-3.174.011-6.349,0-9.524.008-.507,0-1.015.043-1.624.071.357,2.249,1.3,3.95,3.342,4.736C187.12,294.084,189.406,293.168,191.412,290.976Zm-10.177-4.923H190.9a4.444,4.444,0,0,0-4.417-4.482A5.13,5.13,0,0,0,181.235,286.053Z" transform="translate(-168.913 -270.675)" fill="#e32823"/><path d="M409.044,295.135h-1.875l-.443-1.706a6.988,6.988,0,0,1-6.427,2.046,4.6,4.6,0,0,1-3.985-4.025,4.334,4.334,0,0,1,2.941-4.81,21.081,21.081,0,0,1,4.415-.869,22.33,22.33,0,0,1,2.881-.023c.21-1.454,0-2.673-1.131-3.4-2.5-1.6-4.785-.529-7.02.909l-1.1-1.307c2.215-2.781,7.314-3.288,9.923-1.066a5.668,5.668,0,0,1,1.817,4.6C409.06,288.648,409.044,291.815,409.044,295.135Zm-2.495-7.606a57.858,57.858,0,0,0-5.782.868,2.417,2.417,0,0,0-1.951,2.994,2.636,2.636,0,0,0,2.693,2.06C404.881,293.692,406.913,291.492,406.549,287.529Z" transform="translate(-257.584 -270.683)" fill="#e32823"/><path d="M376.974,279.232v-2.023h2.963a6.664,6.664,0,0,1,.027-1.748c.265-.876-.971-2.482,1.178-2.5,2.24-.017.957,1.664,1.248,2.567a6.2,6.2,0,0,1,.023,1.624c1.107,0,2.129.038,3.145-.012.816-.04,1.071.3,1.072,1.079s-.232,1.139-1.054,1.1c-.985-.044-1.973-.011-3.107-.011,0,3.378-.041,6.626.026,9.872.019.929.753,1.393,1.672,1.393.7,0,1.4-.086,2.1-.133.581,1.806.436,2.049-1.364,2.314-2.954.436-4.776-1.015-4.885-4.033-.091-2.506-.029-5.017-.034-7.525,0-.557,0-1.113,0-1.794Z" transform="translate(-249.72 -268.022)" fill="#e32823"/><path d="M427.183,264.78h2.226v24.337h-2.226Z" transform="translate(-270.171 -264.689)" fill="#e32823"/><path d="M170.331,281.716a15.209,15.209,0,0,0-2.584.225c-1.741.453-2.908,2.218-2.995,4.545s-.049,4.641-.064,6.963c0,.512,0,1.025,0,1.639h-2.423V279.935h2.082c.072.5.143,1,.228,1.586.816-.543,1.55-1.108,2.356-1.542a3.916,3.916,0,0,1,1.629-.447C170.445,279.447,170.9,279.372,170.331,281.716Z" transform="translate(-162.265 -270.685)" fill="#e32823"/><path d="M368.514,280.132c2.343-.2,2.345-.2,2.345,1.853,0,4.394,0,8.788,0,13.3h-2.346Z" transform="translate(-246.274 -270.908)" fill="#e32823"/><path d="M320.959,280.149c2.332-.248,2.333-.248,2.334,1.812q0,5.884,0,11.769v1.6h-2.335Z" transform="translate(-226.904 -270.904)" fill="#e32823"/><path d="M369.81,267.97c.336.511,1.018,1.11,1.1,1.785.124.976-.672,1.54-1.644,1.511A1.426,1.426,0,0,1,367.8,269.7C367.787,268.648,368.456,268.218,369.81,267.97Z" transform="translate(-245.983 -265.988)" fill="#e32823"/><path d="M320.113,269.34c.434-.291,1.081-1.063,1.677-1.025a2.233,2.233,0,0,1,1.5,1.473c.216.949-.542,1.593-1.522,1.619C320.757,271.434,320.226,270.816,320.113,269.34Z" transform="translate(-226.559 -266.128)" fill="#e32823"/><text transform="translate(26.696 34.75)" fill="#e32823" font-size="3" font-family="Montserrat-SemiBoldItalic, Montserrat" font-weight="600" font-style="italic" letter-spacing="0.2em"><tspan x="0" y="0">AN IT AND DIGITAL COMPANY</tspan></text></g><text transform="translate(1391 660)" fill="#e32823" font-size="12" font-family="Montserrat-SemiBold, Montserrat" font-weight="600"><tspan x="0" y="0">Developer by</tspan></text></g></svg>