<?xml version="1.0" encoding="utf-8"?>
<!-- Generator: Adobe Illustrator 23.0.1, SVG Export Plug-In . SVG Version: 6.00 Build 0)  -->
<svg version="1.1" id="Layer_1" xmlns="http://www.w3.org/2000/svg" xmlns:xlink="http://www.w3.org/1999/xlink" x="0px" y="0px"
	 viewBox="0 0 257 137.3" style="enable-background:new 0 0 257 137.3;" xml:space="preserve">
<style type="text/css">
	.st0{fill:#D8B4A0;}
	.st1{fill:#E32823;}
	.st2{enable-background:new    ;}
	.st3{fill:#A4A4A4;}
</style>
<g transform="translate(-1216 -561.184)">
	<g transform="translate(1216 561.184)">
		<g transform="translate(0 0)">
			<path class="st0" d="M103.6,76.4c0.5,6.3-1.4,11.5-6.3,15.5c-7.1,5.6-17.4,4.4-23.1-2.7c-0.6-0.8-1.2-1.6-1.6-2.5
				c-3.7-6.9-6.9-14.1-10.3-21.2c-5.5-11.5-11-23-16.5-34.5c-0.2-0.5-0.4-1.1-1-1.4C38,47.3,31.3,64.9,24.6,82.4
				c-0.7,1.7-1.3,3.5-2,5.2c-2.6,6.2-9.1,9.2-15.2,6.8c-6-2.3-9-9-6.7-14.9c0-0.1,0.1-0.2,0.1-0.3c6.3-16.8,12.7-33.5,19.1-50.3
				c2.2-5.8,3.8-11.9,6.9-17.4C30,5.7,34.6,1.7,41.3,0.3c7.4-1.5,14.9,1.7,19.1,8c3.8,6.1,6.4,12.8,9.5,19.2
				c2.4,4.9,4.7,9.9,7.1,14.9c1.4,2.8,2.4,5.8,4.1,8.4c0.2,0.5,0.3,1.1,0.5,1.6c3.8,8.1,7.6,16.2,11.4,24.3c0.3,0.7,0.8,1.4,1.5,1.8
				C98,80.8,100.7,80.2,103.6,76.4z"/>
			<path class="st1" d="M103.6,76.4c-2.9,3.9-5.6,4.4-9,2.1c-0.7-0.5-1.2-1.1-1.5-1.8c-3.8-8.1-7.6-16.2-11.4-24.3
				c-0.2-0.5-0.4-1-0.5-1.6c0-12.4,0.1-24.7,0.1-37.1c0-7.2,5.1-12.4,11.8-12.1c5.5,0.2,10.6,4.8,10.6,10.2
				C103.7,33.3,103.6,54.8,103.6,76.4z"/>
			<path class="st0" d="M46.6,59.1c4.6,0.1,8.3,3.9,8.2,8.5c-0.1,4.6-3.9,8.3-8.5,8.2c-4.6-0.1-8.3-3.9-8.2-8.5c0,0,0,0,0,0
				c0-4.5,3.7-8.2,8.2-8.1C46.4,59,46.5,59,46.6,59.1z"/>
		</g>
	</g>
	<g class="st2">
		<path class="st3" d="M1373.7,605.2v1.6h-4.7v-1.6c0-0.6-0.2-1.2-0.7-1.6c-0.4-0.4-1-0.7-1.6-0.7h-27.8c-0.6,0-1.2,0.2-1.6,0.7
			c-0.4,0.4-0.7,1-0.7,1.6v9.3c0,0.6,0.2,1.1,0.7,1.6c0.4,0.4,1,0.6,1.6,0.6h27.8c1.9,0,3.6,0.7,4.9,2s2,3,2,4.9v9.3
			c0,1.9-0.7,3.6-2,4.9c-1.4,1.4-3,2-4.9,2h-27.8c-1.9,0-3.6-0.7-4.9-2c-1.4-1.4-2-3-2-4.9v-1.6h4.7v1.6c0,0.6,0.2,1.2,0.7,1.6
			c0.4,0.4,1,0.7,1.6,0.7h27.8c0.6,0,1.2-0.2,1.6-0.7c0.4-0.4,0.7-1,0.7-1.6v-9.3c0-0.6-0.2-1.1-0.7-1.6c-0.4-0.4-1-0.6-1.6-0.6
			h-27.8c-1.9,0-3.6-0.7-4.9-2c-1.4-1.4-2-3-2-4.9v-9.3c0-1.9,0.7-3.6,2-4.9c1.4-1.4,3-2,4.9-2h27.8c1.9,0,3.6,0.7,4.9,2
			C1373,601.6,1373.7,603.3,1373.7,605.2z"/>
		<path class="st3" d="M1386.8,598.2h27.8c1.9,0,3.6,0.7,4.9,2c1.4,1.4,2,3,2,4.9V633c0,1.9-0.7,3.6-2,4.9c-1.4,1.4-3,2-4.9,2h-27.8
			c-1.9,0-3.6-0.7-4.9-2c-1.4-1.4-2-3-2-4.9v-27.8c0-1.9,0.7-3.6,2-4.9C1383.2,598.9,1384.8,598.2,1386.8,598.2z M1386.8,635.3h27.8
			c0.6,0,1.2-0.2,1.6-0.7c0.4-0.4,0.7-1,0.7-1.6v-27.8c0-0.6-0.2-1.2-0.7-1.6s-1-0.7-1.6-0.7h-27.8c-0.6,0-1.2,0.2-1.6,0.7
			s-0.7,1-0.7,1.6V633c0,0.6,0.2,1.2,0.7,1.6C1385.6,635.1,1386.1,635.3,1386.8,635.3z"/>
		<path class="st3" d="M1469.6,602.9h-34.7c-0.6,0-1.2,0.2-1.6,0.7s-0.7,1-0.7,1.6V633c0,0.6,0.2,1.2,0.7,1.6c0.4,0.4,1,0.7,1.6,0.7
			h34.7v4.7h-34.7c-1.9,0-3.6-0.7-4.9-2c-1.4-1.4-2-3-2-4.9v-27.8c0-1.9,0.7-3.6,2-4.9c1.4-1.4,3-2,4.9-2h34.7V602.9z"/>
	</g>
	<g transform="translate(1312.881 662.762)">
		<path class="st1" d="M58.5,25.4c-4.4-0.1-7.9-3.6-7.9-8c-0.2-4.3,3.2-8,7.6-8.1c4.3-0.2,8,3.2,8.1,7.6c0,0.2,0,0.3,0,0.5
			C66.4,21.7,62.9,25.3,58.5,25.4z"/>
		<path class="st1" d="M101.4,28.9l1.3-1.4c2.8,2.3,5.9,3.5,9.3,1.6c2.4-1.4,2.3-4,2.2-6.8c-1.9,1.7-3.9,2.6-6.3,2.4
			c-2.3-0.1-4.3-1.3-5.7-3.1c-2.2-3.2-1.9-7.5,0.7-10.4c2.9-3,6.7-3.1,11.1-0.1c0.1-0.6,0.1-1.1,0.2-1.8h2.2
			c0.1,0.2,0.1,0.3,0.1,0.5c0,5,0.1,10-0.1,15.1c-0.2,3.8-2.1,6.1-5.3,7C107.7,32.9,103.8,31.7,101.4,28.9z M108.8,22.5
			c3,0.1,5.5-2.3,5.6-5.3c0-0.1,0-0.3,0-0.4c0.1-3.2-2.4-5.8-5.5-6c0,0,0,0,0,0c-3.1,0-5.5,2.4-5.5,5.8
			C103.4,20.2,105.5,22.5,108.8,22.5L108.8,22.5z"/>
		<path class="st1" d="M87.8,24.4h-2.2l-0.2-1.9c-1.9,1.6-3.9,2.6-6.4,2.3c-2.3-0.2-4.4-1.4-5.7-3.3c-2.1-3.3-1.7-7.5,0.9-10.4
			c2.9-2.9,6.5-3,11.2-0.1V0.1h2.3L87.8,24.4z M74.6,16.9c0,3.5,2.2,5.9,5.5,5.8c3.1,0,5.6-2.5,5.5-5.6c0-0.1,0-0.2,0-0.3
			c0.1-3.1-2.3-5.8-5.4-5.9c-0.1,0-0.1,0-0.2,0C76.8,10.9,74.6,13.4,74.6,16.9L74.6,16.9z"/>
		<path class="st1" d="M41.6,11.2c0-3.2,0-6.2,0-9.2c0-2.2,0-2.2,2.3-1.8v24.2h-2.2l-0.2-1.7c-4.8,3-8.8,2.8-11.5-0.5
			c-2.5-3.3-2.4-7.8,0.2-11C33.2,8.1,37.2,8.1,41.6,11.2z M41.8,16.9c0-3.4-2.3-5.9-5.5-6s-5.5,2.5-5.5,5.9c0,3.5,2.2,5.9,5.5,5.9
			c3,0,5.5-2.4,5.6-5.4C41.8,17.2,41.8,17,41.8,16.9L41.8,16.9z"/>
		<path class="st1" d="M22.5,20.3l1.4,1.1c-1.5,2.7-4.4,3.9-8,3.4c-3.1-0.5-5.5-2.9-6.1-6c-1.3-6.1,3.8-11.3,9.6-9.7
			c3.3,1,5.5,4.2,5.1,7.6c-0.1,1-0.7,0.8-1.3,0.8c-3.2,0-6.3,0-9.5,0c-0.5,0-1,0-1.6,0.1c0.4,2.2,1.3,4,3.3,4.7
			C18.2,23.4,20.5,22.5,22.5,20.3z M12.3,15.4H22c0-2.5-2-4.5-4.4-4.5c0,0,0,0,0,0C14.9,10.8,12.7,12.8,12.3,15.4z"/>
		<path class="st1" d="M151.5,24.5h-1.9l-0.4-1.7c-1.6,1.7-4.1,2.5-6.4,2c-2.1-0.3-3.7-1.9-4-4c-0.3-2.1,0.9-4.2,2.9-4.8
			c1.4-0.4,2.9-0.7,4.4-0.9c1-0.1,1.9-0.1,2.9,0c0.2-1.5,0-2.7-1.1-3.4c-2.5-1.6-4.8-0.5-7,0.9l-1.1-1.3c2.2-2.8,7.3-3.3,9.9-1.1
			c1.3,1.2,1.9,2.9,1.8,4.6C151.5,18,151.5,21.1,151.5,24.5z M149,16.8c-1.9,0.2-3.9,0.5-5.8,0.9c-1.3,0.2-2.2,1.5-2,2.8
			c0,0.1,0,0.1,0,0.2c0.3,1.2,1.4,2.1,2.7,2.1C147.3,23,149.3,20.8,149,16.8L149,16.8z"/>
		<path class="st1" d="M127.3,11.2v-2h3c-0.1-0.6-0.1-1.2,0-1.7c0.3-0.9-1-2.5,1.2-2.5c2.2,0,1,1.7,1.2,2.6c0.1,0.5,0.1,1.1,0,1.6
			c1.1,0,2.1,0,3.1,0c0.8,0,1.1,0.3,1.1,1.1s-0.2,1.1-1.1,1.1c-1,0-2,0-3.1,0c0,3.4,0,6.6,0,9.9c0,0.9,0.8,1.4,1.7,1.4
			c0.7,0,1.4-0.1,2.1-0.1c0.6,1.8,0.4,2-1.4,2.3c-3,0.4-4.8-1-4.9-4c-0.1-2.5,0-5,0-7.5c0-0.6,0-1.1,0-1.8L127.3,11.2z"/>
		<path class="st1" d="M157,0.1h2.2v24.3H157V0.1z"/>
		<path class="st1" d="M8.1,11c-0.9,0-1.7,0.1-2.6,0.2c-1.7,0.5-2.9,2.2-3,4.5s0,4.6-0.1,7c0,0.5,0,1,0,1.6H0V9.2h2.1
			c0.1,0.5,0.1,1,0.2,1.6c0.8-0.5,1.6-1.1,2.4-1.5C5.2,9,5.7,8.9,6.3,8.8C8.2,8.8,8.6,8.7,8.1,11z"/>
		<path class="st1" d="M122.2,9.2c2.3-0.2,2.3-0.2,2.3,1.9c0,4.4,0,8.8,0,13.3h-2.3L122.2,9.2z"/>
		<path class="st1" d="M94.1,9.2c2.3-0.2,2.3-0.2,2.3,1.8c0,3.9,0,7.8,0,11.8v1.6h-2.3L94.1,9.2z"/>
		<path class="st1" d="M123.8,2c0.3,0.5,1,1.1,1.1,1.8c0.1,1-0.7,1.5-1.6,1.5c-0.8,0-1.4-0.6-1.5-1.4c0-0.1,0-0.1,0-0.2
			C121.8,2.7,122.5,2.2,123.8,2z"/>
		<path class="st1" d="M93.6,3.2c0.4-0.3,1.1-1.1,1.7-1c0.7,0.2,1.3,0.8,1.5,1.5c0.2,0.9-0.5,1.6-1.5,1.6
			C94.2,5.3,93.7,4.7,93.6,3.2z"/>
		<g class="st2">
			<path class="st1" d="M28.3,34.3h-1.1l-0.3,0.5h-0.4l1.4-2.1h0.4l0.5,2.1h-0.4L28.3,34.3z M28.2,34L28,33L27.4,34H28.2z"/>
			<path class="st1" d="M31.9,32.6l-0.4,2.1h-0.3l-0.9-1.5l-0.3,1.5h-0.4l0.4-2.1h0.3l0.9,1.5l0.3-1.5H31.9z"/>
			<path class="st1" d="M34.5,32.6h0.4l-0.4,2.1h-0.4L34.5,32.6z"/>
			<path class="st1" d="M36.5,33h-0.7l0.1-0.3h1.8L37.5,33h-0.7l-0.4,1.8h-0.4L36.5,33z"/>
			<path class="st1" d="M41,34.3h-1.1l-0.3,0.5h-0.4l1.4-2.1H41l0.5,2.1h-0.4L41,34.3z M40.9,34L40.7,33L40.1,34H40.9z"/>
			<path class="st1" d="M44.6,32.6l-0.4,2.1h-0.3L43,33.3l-0.3,1.5h-0.4l0.4-2.1h0.3l0.9,1.5l0.3-1.5H44.6z"/>
			<path class="st1" d="M45.8,32.6h0.8c0.2,0,0.4,0,0.5,0.1c0.2,0.1,0.3,0.2,0.4,0.3s0.1,0.3,0.1,0.5c0,0.2-0.1,0.5-0.2,0.6
				c-0.1,0.2-0.3,0.3-0.5,0.4s-0.4,0.2-0.7,0.2h-1L45.8,32.6z M46.4,34.4c0.2,0,0.3,0,0.5-0.1c0.1-0.1,0.2-0.2,0.3-0.3
				c0.1-0.1,0.1-0.3,0.1-0.5c0-0.2-0.1-0.3-0.2-0.4C47,33,46.8,33,46.6,33h-0.5l-0.3,1.4H46.4z"/>
			<path class="st1" d="M50.3,32.6h0.8c0.2,0,0.4,0,0.5,0.1c0.2,0.1,0.3,0.2,0.4,0.3s0.1,0.3,0.1,0.5c0,0.2-0.1,0.5-0.2,0.6
				c-0.1,0.2-0.3,0.3-0.5,0.4s-0.4,0.2-0.7,0.2h-1L50.3,32.6z M50.9,34.4c0.2,0,0.3,0,0.5-0.1c0.1-0.1,0.2-0.2,0.3-0.3
				c0.1-0.1,0.1-0.3,0.1-0.5c0-0.2-0.1-0.3-0.2-0.4C51.5,33,51.3,33,51.1,33h-0.5l-0.3,1.4H50.9z"/>
			<path class="st1" d="M53.4,32.6h0.4l-0.4,2.1H53L53.4,32.6z"/>
			<path class="st1" d="M56.2,33.7h0.4l-0.2,0.8c-0.1,0.1-0.2,0.1-0.4,0.2s-0.3,0.1-0.4,0.1c-0.2,0-0.4,0-0.5-0.1
				c-0.2-0.1-0.3-0.2-0.4-0.3s-0.1-0.3-0.1-0.5c0-0.2,0.1-0.4,0.2-0.6c0.1-0.2,0.3-0.3,0.5-0.5c0.2-0.1,0.4-0.2,0.7-0.2
				c0.2,0,0.4,0,0.5,0.1s0.3,0.1,0.3,0.3l-0.3,0.2c-0.1-0.1-0.1-0.1-0.2-0.2C56.1,33,56,33,55.9,33c-0.2,0-0.3,0-0.5,0.1
				c-0.1,0.1-0.2,0.2-0.3,0.3C55,33.5,55,33.7,55,33.9c0,0.2,0.1,0.3,0.2,0.4c0.1,0.1,0.3,0.2,0.5,0.2c0.1,0,0.3,0,0.4-0.1
				L56.2,33.7z"/>
			<path class="st1" d="M57.9,32.6h0.4l-0.4,2.1h-0.4L57.9,32.6z"/>
			<path class="st1" d="M59.8,33h-0.7l0.1-0.3h1.8L60.9,33h-0.7l-0.4,1.8h-0.4L59.8,33z"/>
			<path class="st1" d="M62.8,34.3h-1.1l-0.3,0.5H61l1.4-2.1h0.4l0.5,2.1h-0.4L62.8,34.3z M62.7,34L62.5,33L61.9,34H62.7z"/>
			<path class="st1" d="M64.6,32.6H65l-0.4,1.8h1.1l-0.1,0.3h-1.5L64.6,32.6z"/>
			<path class="st1" d="M68.5,34.7c-0.2-0.1-0.3-0.2-0.4-0.3S68,34.1,68,33.9c0-0.2,0.1-0.4,0.2-0.6c0.1-0.2,0.3-0.3,0.5-0.5
				s0.4-0.2,0.7-0.2c0.2,0,0.3,0,0.5,0.1c0.1,0.1,0.2,0.1,0.3,0.3l-0.3,0.2C69.7,33,69.5,33,69.3,33c-0.2,0-0.3,0-0.5,0.1
				c-0.1,0.1-0.2,0.2-0.3,0.3c-0.1,0.1-0.1,0.3-0.1,0.5c0,0.2,0.1,0.3,0.2,0.4c0.1,0.1,0.3,0.2,0.5,0.2c0.2,0,0.4-0.1,0.6-0.2
				l0.2,0.2c-0.1,0.1-0.2,0.2-0.4,0.3c-0.1,0.1-0.3,0.1-0.5,0.1C68.8,34.8,68.7,34.7,68.5,34.7z"/>
			<path class="st1" d="M71.2,34.7c-0.2-0.1-0.3-0.2-0.3-0.3s-0.1-0.3-0.1-0.5c0-0.2,0.1-0.4,0.2-0.6c0.1-0.2,0.3-0.3,0.5-0.5
				c0.2-0.1,0.4-0.2,0.7-0.2c0.2,0,0.4,0,0.5,0.1c0.2,0.1,0.3,0.2,0.3,0.3c0.1,0.1,0.1,0.3,0.1,0.5c0,0.2-0.1,0.4-0.2,0.6
				c-0.1,0.2-0.3,0.3-0.5,0.5c-0.2,0.1-0.4,0.2-0.7,0.2C71.6,34.8,71.4,34.7,71.2,34.7z M72.2,34.3c0.1-0.1,0.2-0.2,0.3-0.3
				c0.1-0.1,0.1-0.3,0.1-0.4c0-0.2-0.1-0.3-0.2-0.4C72.4,33,72.2,33,72,33c-0.2,0-0.3,0-0.5,0.1c-0.1,0.1-0.2,0.2-0.3,0.3
				c-0.1,0.1-0.1,0.3-0.1,0.4c0,0.2,0.1,0.3,0.2,0.4c0.1,0.1,0.3,0.2,0.5,0.2C72,34.4,72.1,34.4,72.2,34.3z"/>
			<path class="st1" d="M76.6,32.6l-0.4,2.1h-0.4l0.3-1.4l-0.9,1.1H75l-0.5-1.2l-0.3,1.4h-0.4l0.4-2.1h0.3l0.6,1.4l1.1-1.4H76.6z"/>
			<path class="st1" d="M79.1,32.8c0.1,0.1,0.2,0.3,0.2,0.5c0,0.2,0,0.3-0.1,0.5S79,34,78.9,34c-0.2,0.1-0.3,0.1-0.5,0.1h-0.5
				l-0.1,0.6h-0.4l0.4-2.1h0.8C78.8,32.6,79,32.7,79.1,32.8z M78.8,33.7c0.1-0.1,0.2-0.2,0.2-0.4c0-0.1,0-0.2-0.1-0.3
				C78.7,33,78.6,33,78.5,33H78l-0.2,0.8h0.5C78.5,33.8,78.7,33.8,78.8,33.7z"/>
			<path class="st1" d="M81.4,34.3h-1.1l-0.3,0.5h-0.4l1.4-2.1h0.4l0.5,2.1h-0.4L81.4,34.3z M81.4,34L81.1,33L80.6,34H81.4z"/>
			<path class="st1" d="M85.1,32.6l-0.4,2.1h-0.3l-0.9-1.5l-0.3,1.5h-0.4l0.4-2.1h0.3l0.9,1.5l0.3-1.5H85.1z"/>
			<path class="st1" d="M86.9,34l-0.1,0.7h-0.4l0.1-0.7l-0.5-1.4h0.4l0.4,1l0.8-1H88L86.9,34z"/>
		</g>
	</g>
	<g class="st2">
		<path class="st1" d="M1392.1,651.6h3.7c0.9,0,1.7,0.2,2.4,0.5c0.7,0.3,1.2,0.8,1.6,1.5c0.4,0.6,0.6,1.4,0.6,2.2s-0.2,1.6-0.6,2.2
			c-0.4,0.6-0.9,1.1-1.6,1.5c-0.7,0.3-1.5,0.5-2.4,0.5h-3.7V651.6z M1395.7,658.7c0.6,0,1.2-0.1,1.6-0.4c0.5-0.2,0.8-0.6,1.1-1
			c0.3-0.4,0.4-0.9,0.4-1.5s-0.1-1.1-0.4-1.5c-0.3-0.4-0.6-0.8-1.1-1c-0.5-0.2-1-0.4-1.6-0.4h-2v5.8H1395.7z"/>
		<path class="st1" d="M1407.9,657.3h-5c0.1,0.5,0.3,0.8,0.7,1.1c0.4,0.3,0.8,0.4,1.4,0.4c0.7,0,1.3-0.2,1.7-0.7l0.8,0.9
			c-0.3,0.3-0.7,0.6-1.1,0.8c-0.4,0.2-0.9,0.3-1.5,0.3c-0.7,0-1.3-0.1-1.9-0.4c-0.5-0.3-1-0.7-1.2-1.2c-0.3-0.5-0.4-1.1-0.4-1.7
			c0-0.6,0.1-1.2,0.4-1.7s0.7-0.9,1.2-1.2c0.5-0.3,1.1-0.4,1.7-0.4c0.6,0,1.2,0.1,1.7,0.4c0.5,0.3,0.9,0.7,1.2,1.2
			c0.3,0.5,0.4,1.1,0.4,1.7C1407.9,656.9,1407.9,657.1,1407.9,657.3z M1403.5,655.1c-0.3,0.3-0.5,0.7-0.6,1.1h3.6
			c-0.1-0.5-0.3-0.8-0.6-1.1s-0.7-0.4-1.2-0.4C1404.2,654.7,1403.8,654.9,1403.5,655.1z"/>
		<path class="st1" d="M1415.2,653.6l-2.7,6.4h-1.5l-2.7-6.4h1.6l2,4.8l2.1-4.8H1415.2z"/>
		<path class="st1" d="M1422,657.3h-5c0.1,0.5,0.3,0.8,0.7,1.1c0.4,0.3,0.8,0.4,1.4,0.4c0.7,0,1.3-0.2,1.7-0.7l0.8,0.9
			c-0.3,0.3-0.7,0.6-1.1,0.8c-0.4,0.2-0.9,0.3-1.5,0.3c-0.7,0-1.3-0.1-1.9-0.4c-0.5-0.3-1-0.7-1.2-1.2c-0.3-0.5-0.4-1.1-0.4-1.7
			c0-0.6,0.1-1.2,0.4-1.7s0.7-0.9,1.2-1.2c0.5-0.3,1.1-0.4,1.7-0.4c0.6,0,1.2,0.1,1.7,0.4c0.5,0.3,0.9,0.7,1.2,1.2
			c0.3,0.5,0.4,1.1,0.4,1.7C1422,656.9,1422,657.1,1422,657.3z M1417.6,655.1c-0.3,0.3-0.5,0.7-0.6,1.1h3.6
			c-0.1-0.5-0.3-0.8-0.6-1.1s-0.7-0.4-1.2-0.4C1418.3,654.7,1417.9,654.9,1417.6,655.1z"/>
		<path class="st1" d="M1423.5,651.1h1.5v8.9h-1.5V651.1z"/>
		<path class="st1" d="M1428.1,659.7c-0.5-0.3-0.9-0.7-1.2-1.2c-0.3-0.5-0.4-1.1-0.4-1.7s0.1-1.2,0.4-1.7c0.3-0.5,0.7-0.9,1.2-1.2
			c0.5-0.3,1.1-0.4,1.8-0.4c0.7,0,1.2,0.1,1.8,0.4c0.5,0.3,0.9,0.7,1.2,1.2c0.3,0.5,0.4,1.1,0.4,1.7s-0.1,1.2-0.4,1.7
			s-0.7,0.9-1.2,1.2s-1.1,0.4-1.8,0.4C1429.2,660.1,1428.6,659.9,1428.1,659.7z M1431.2,658.2c0.4-0.4,0.5-0.9,0.5-1.5
			c0-0.6-0.2-1.1-0.5-1.5c-0.4-0.4-0.8-0.6-1.4-0.6c-0.6,0-1,0.2-1.4,0.6c-0.4,0.4-0.5,0.9-0.5,1.5c0,0.6,0.2,1.1,0.5,1.5
			s0.8,0.6,1.4,0.6C1430.4,658.8,1430.8,658.6,1431.2,658.2z"/>
		<path class="st1" d="M1439.9,653.9c0.5,0.3,0.9,0.7,1.2,1.2s0.4,1.1,0.4,1.7c0,0.6-0.1,1.2-0.4,1.7c-0.3,0.5-0.7,0.9-1.2,1.2
			c-0.5,0.3-1,0.4-1.7,0.4c-0.9,0-1.5-0.3-2.1-0.9v3.1h-1.5v-8.7h1.4v0.8c0.2-0.3,0.6-0.5,0.9-0.7c0.4-0.2,0.8-0.2,1.2-0.2
			C1438.8,653.5,1439.4,653.7,1439.9,653.9z M1439.4,658.2c0.4-0.4,0.5-0.9,0.5-1.5c0-0.6-0.2-1.1-0.5-1.5c-0.4-0.4-0.8-0.6-1.4-0.6
			c-0.4,0-0.7,0.1-1,0.2c-0.3,0.2-0.5,0.4-0.7,0.7s-0.3,0.7-0.3,1.1c0,0.4,0.1,0.8,0.3,1.1c0.2,0.3,0.4,0.5,0.7,0.7
			c0.3,0.2,0.6,0.2,1,0.2C1438.6,658.8,1439.1,658.6,1439.4,658.2z"/>
		<path class="st1" d="M1448.9,657.3h-5c0.1,0.5,0.3,0.8,0.7,1.1c0.4,0.3,0.8,0.4,1.4,0.4c0.7,0,1.3-0.2,1.7-0.7l0.8,0.9
			c-0.3,0.3-0.7,0.6-1.1,0.8c-0.4,0.2-0.9,0.3-1.5,0.3c-0.7,0-1.3-0.1-1.9-0.4c-0.5-0.3-0.9-0.7-1.2-1.2c-0.3-0.5-0.4-1.1-0.4-1.7
			c0-0.6,0.1-1.2,0.4-1.7c0.3-0.5,0.7-0.9,1.2-1.2c0.5-0.3,1.1-0.4,1.7-0.4c0.6,0,1.2,0.1,1.7,0.4c0.5,0.3,0.9,0.7,1.2,1.2
			c0.3,0.5,0.4,1.1,0.4,1.7C1448.9,656.9,1448.9,657.1,1448.9,657.3z M1444.5,655.1c-0.3,0.3-0.5,0.7-0.6,1.1h3.6
			c-0.1-0.5-0.3-0.8-0.6-1.1c-0.3-0.3-0.7-0.4-1.2-0.4C1445.2,654.7,1444.8,654.9,1444.5,655.1z"/>
		<path class="st1" d="M1454.1,653.5v1.4c-0.1,0-0.2,0-0.3,0c-0.6,0-1,0.2-1.4,0.5c-0.3,0.3-0.5,0.8-0.5,1.5v3.1h-1.5v-6.4h1.4v0.9
			C1452.2,653.9,1453,653.5,1454.1,653.5z"/>
		<path class="st1" d="M1463.9,653.9c0.5,0.3,0.9,0.7,1.2,1.2c0.3,0.5,0.4,1.1,0.4,1.7c0,0.6-0.1,1.2-0.4,1.7
			c-0.3,0.5-0.7,0.9-1.2,1.2c-0.5,0.3-1.1,0.4-1.7,0.4c-0.4,0-0.8-0.1-1.2-0.2c-0.4-0.2-0.7-0.4-0.9-0.7v0.8h-1.4v-8.9h1.5v3.3
			c0.3-0.3,0.6-0.5,0.9-0.6c0.3-0.1,0.7-0.2,1.1-0.2C1462.9,653.5,1463.4,653.7,1463.9,653.9z M1463.5,658.2
			c0.4-0.4,0.5-0.9,0.5-1.5c0-0.6-0.2-1.1-0.5-1.5c-0.4-0.4-0.8-0.6-1.4-0.6c-0.4,0-0.7,0.1-1,0.2s-0.5,0.4-0.7,0.7
			s-0.3,0.7-0.3,1.1c0,0.4,0.1,0.8,0.3,1.1c0.2,0.3,0.4,0.5,0.7,0.7s0.6,0.2,1,0.2C1462.7,658.8,1463.1,658.6,1463.5,658.2z"/>
		<path class="st1" d="M1472.8,653.6l-3,6.9c-0.3,0.7-0.6,1.2-1,1.5c-0.4,0.3-0.9,0.4-1.5,0.4c-0.3,0-0.6-0.1-0.9-0.2
			c-0.3-0.1-0.6-0.2-0.8-0.4l0.6-1.1c0.1,0.1,0.3,0.2,0.5,0.3s0.4,0.1,0.6,0.1c0.3,0,0.5-0.1,0.7-0.2c0.2-0.1,0.3-0.4,0.5-0.7
			l0.1-0.3l-2.8-6.4h1.6l2,4.7l2-4.7H1472.8z"/>
	</g>
</g>
</svg>
