<svg xmlns="http://www.w3.org/2000/svg" width="257" height="97.999" viewBox="0 0 257 97.999"><g transform="translate(-1216 -561)"><g transform="translate(1216 561)"><g transform="translate(0 0)"><path d="M116.13,104.246c.533,6.259-1.355,11.537-6.345,15.531a16.422,16.422,0,0,1-24.71-5.156c-3.732-6.909-6.948-14.1-10.348-21.185Q66.458,76.2,58.247,58.942c-.241-.5-.367-1.088-1-1.4Q47.194,83.932,37.15,110.3c-.664,1.743-1.275,3.508-1.985,5.231-2.575,6.244-9.135,9.181-15.193,6.832A11.576,11.576,0,0,1,13.4,107.1Q22.863,81.931,32.46,56.808c2.234-5.814,3.825-11.885,6.852-17.387,3.217-5.849,7.815-9.879,14.533-11.2A18.372,18.372,0,0,1,72.9,36.183c3.79,6.06,6.366,12.758,9.48,19.173,2.4,4.933,4.663,9.928,7.08,14.85,1.375,2.8,2.391,5.778,4.125,8.4a15.205,15.205,0,0,0,.549,1.583q5.707,12.157,11.442,24.3a4.321,4.321,0,0,0,1.512,1.812C110.554,108.684,113.206,108.113,116.13,104.246Z" transform="translate(-12.555 -27.871)" fill="#d8b4a0"/><path d="M117.54,104.273c-2.924,3.867-5.576,4.438-9.038,2.06a4.32,4.32,0,0,1-1.512-1.812q-5.732-12.146-11.442-24.3A15.2,15.2,0,0,1,95,78.636q.059-18.537.122-37.073c.029-7.208,5.066-12.367,11.773-12.091,5.534.227,10.607,4.78,10.635,10.163C117.637,61.18,117.553,82.727,117.54,104.273Z" transform="translate(-13.965 -27.898)" fill="#e32823"/><path d="M59.853,87.953a8.334,8.334,0,1,1-8.48,8.141A8.156,8.156,0,0,1,59.853,87.953Z" transform="translate(-13.219 -28.899)" fill="#d8b4a0"/></g></g><text transform="translate(1329 585.999)" fill="#fff" font-size="58" font-family="Orbitron-Regular, Orbitron"><tspan x="0" y="59">SOC</tspan></text></g></svg>