<?xml version="1.0" encoding="utf-8"?>
<!-- Generator: Adobe Illustrator 23.0.1, SVG Export Plug-In . SVG Version: 6.00 Build 0)  -->
<svg version="1.1" id="Layer_1" xmlns="http://www.w3.org/2000/svg" xmlns:xlink="http://www.w3.org/1999/xlink" x="0px" y="0px"
	 viewBox="0 0 257 98" style="enable-background:new 0 0 257 98;" xml:space="preserve">
<style type="text/css">
	.st0{fill:#D8B4A0;}
	.st1{fill:#E32823;}
	.st2{enable-background:new    ;}
	.st3{fill:#FFFFFF;}
</style>
<g transform="translate(-1216 -561)">
	<g transform="translate(1216 561)">
		<g transform="translate(0 0)">
			<path class="st0" d="M103.6,76.4c0.5,6.3-1.4,11.5-6.3,15.5c-7.1,5.6-17.4,4.4-23.1-2.7c-0.6-0.8-1.2-1.6-1.6-2.5
				c-3.7-6.9-6.9-14.1-10.3-21.2c-5.5-11.5-11-23-16.5-34.5c-0.2-0.5-0.4-1.1-1-1.4C38,47.3,31.3,64.9,24.6,82.4
				c-0.7,1.7-1.3,3.5-2,5.2c-2.6,6.2-9.1,9.2-15.2,6.8c-6-2.3-9-9-6.7-14.9c0-0.1,0.1-0.2,0.1-0.3c6.3-16.8,12.7-33.5,19.1-50.3
				c2.2-5.8,3.8-11.9,6.9-17.4C30,5.7,34.6,1.7,41.3,0.3c7.4-1.5,14.9,1.7,19.1,8c3.8,6.1,6.4,12.8,9.5,19.2
				c2.4,4.9,4.7,9.9,7.1,14.9c1.4,2.8,2.4,5.8,4.1,8.4c0.2,0.5,0.3,1.1,0.5,1.6c3.8,8.1,7.6,16.2,11.4,24.3c0.3,0.7,0.8,1.4,1.5,1.8
				C98,80.8,100.7,80.2,103.6,76.4z"/>
			<path class="st1" d="M103.6,76.4c-2.9,3.9-5.6,4.4-9,2.1c-0.7-0.5-1.2-1.1-1.5-1.8c-3.8-8.1-7.6-16.2-11.4-24.3
				c-0.2-0.5-0.4-1-0.5-1.6c0-12.4,0.1-24.7,0.1-37.1c0-7.2,5.1-12.4,11.8-12.1c5.5,0.2,10.6,4.8,10.6,10.2
				C103.7,33.3,103.6,54.8,103.6,76.4z"/>
			<path class="st0" d="M46.6,59.1c4.6,0.1,8.3,3.9,8.2,8.5c-0.1,4.6-3.9,8.3-8.5,8.2c-4.6-0.1-8.3-3.9-8.2-8.5c0,0,0,0,0,0
				c0-4.5,3.7-8.2,8.2-8.1C46.4,59,46.5,59,46.6,59.1z"/>
		</g>
	</g>
	<g class="st2">
		<path class="st3" d="M1373.7,610.2v1.6h-4.7v-1.6c0-0.6-0.2-1.2-0.7-1.6c-0.4-0.4-1-0.7-1.6-0.7h-27.8c-0.6,0-1.2,0.2-1.6,0.7
			c-0.4,0.4-0.7,1-0.7,1.6v9.3c0,0.6,0.2,1.1,0.7,1.6c0.4,0.4,1,0.6,1.6,0.6h27.8c1.9,0,3.6,0.7,4.9,2s2,3,2,4.9v9.3
			c0,1.9-0.7,3.6-2,4.9c-1.4,1.4-3,2-4.9,2h-27.8c-1.9,0-3.6-0.7-4.9-2c-1.4-1.4-2-3-2-4.9v-1.6h4.7v1.6c0,0.6,0.2,1.2,0.7,1.6
			c0.4,0.4,1,0.7,1.6,0.7h27.8c0.6,0,1.2-0.2,1.6-0.7c0.4-0.4,0.7-1,0.7-1.6v-9.3c0-0.6-0.2-1.1-0.7-1.6c-0.4-0.4-1-0.6-1.6-0.6
			h-27.8c-1.9,0-3.6-0.7-4.9-2c-1.4-1.4-2-3-2-4.9v-9.3c0-1.9,0.7-3.6,2-4.9c1.4-1.4,3-2,4.9-2h27.8c1.9,0,3.6,0.7,4.9,2
			C1373,606.6,1373.7,608.3,1373.7,610.2z"/>
		<path class="st3" d="M1386.8,603.2h27.8c1.9,0,3.6,0.7,4.9,2c1.4,1.4,2,3,2,4.9V638c0,1.9-0.7,3.6-2,4.9c-1.4,1.4-3,2-4.9,2h-27.8
			c-1.9,0-3.6-0.7-4.9-2c-1.4-1.4-2-3-2-4.9v-27.8c0-1.9,0.7-3.6,2-4.9C1383.2,603.9,1384.8,603.2,1386.8,603.2z M1386.8,640.3h27.8
			c0.6,0,1.2-0.2,1.6-0.7c0.4-0.4,0.7-1,0.7-1.6v-27.8c0-0.6-0.2-1.2-0.7-1.6s-1-0.7-1.6-0.7h-27.8c-0.6,0-1.2,0.2-1.6,0.7
			s-0.7,1-0.7,1.6V638c0,0.6,0.2,1.2,0.7,1.6C1385.6,640.1,1386.1,640.3,1386.8,640.3z"/>
		<path class="st3" d="M1469.6,607.9h-34.7c-0.6,0-1.2,0.2-1.6,0.7s-0.7,1-0.7,1.6V638c0,0.6,0.2,1.2,0.7,1.6c0.4,0.4,1,0.7,1.6,0.7
			h34.7v4.7h-34.7c-1.9,0-3.6-0.7-4.9-2c-1.4-1.4-2-3-2-4.9v-27.8c0-1.9,0.7-3.6,2-4.9c1.4-1.4,3-2,4.9-2h34.7V607.9z"/>
	</g>
</g>
</svg>
