<svg xmlns="http://www.w3.org/2000/svg" width="17.959" height="22.449" viewBox="0 0 17.959 22.449"><path d="M13.515,21.787a4.488,4.488,0,1,0,6.347-6.347ZM23.427,5.153,9.957,5.141A2.244,2.244,0,0,0,7.712,7.386V25.346a2.244,2.244,0,0,0,2.245,2.245H23.427a2.244,2.244,0,0,0,2.245-2.245V7.386a2.235,2.235,0,0,0-2.245-2.234Zm-8.98,2.234a1.122,1.122,0,1,1-1.122,1.122A1.126,1.126,0,0,1,14.447,7.386Zm-3.367,0A1.122,1.122,0,1,1,9.957,8.509,1.126,1.126,0,0,1,11.08,7.386Zm5.612,17.959a6.735,6.735,0,1,1,6.735-6.735A6.733,6.733,0,0,1,16.692,25.346Z" transform="translate(-7.712 -5.141)" fill="#747170"/></svg>