<svg xmlns="http://www.w3.org/2000/svg" width="18" height="15.75" viewBox="0 0 18 15.75"><path d="M16.875,6.75H1.125A1.125,1.125,0,0,1,0,5.625V3.375A1.125,1.125,0,0,1,1.125,2.25h15.75A1.125,1.125,0,0,1,18,3.375v2.25A1.125,1.125,0,0,1,16.875,6.75ZM15.188,3.656a.844.844,0,1,0,.844.844A.844.844,0,0,0,15.188,3.656Zm-2.25,0a.844.844,0,1,0,.844.844A.844.844,0,0,0,12.938,3.656Zm3.938,8.719H1.125A1.125,1.125,0,0,1,0,11.25V9A1.125,1.125,0,0,1,1.125,7.875h15.75A1.125,1.125,0,0,1,18,9v2.25A1.125,1.125,0,0,1,16.875,12.375ZM15.188,9.281a.844.844,0,1,0,.844.844A.844.844,0,0,0,15.188,9.281Zm-2.25,0a.844.844,0,1,0,.844.844A.844.844,0,0,0,12.938,9.281ZM16.875,18H1.125A1.125,1.125,0,0,1,0,16.875v-2.25A1.125,1.125,0,0,1,1.125,13.5h15.75A1.125,1.125,0,0,1,18,14.625v2.25A1.125,1.125,0,0,1,16.875,18Zm-1.687-3.094a.844.844,0,1,0,.844.844A.844.844,0,0,0,15.188,14.906Zm-2.25,0a.844.844,0,1,0,.844.844A.844.844,0,0,0,12.938,14.906Z" transform="translate(0 -2.25)" fill="#747170"/></svg>