<svg xmlns="http://www.w3.org/2000/svg" width="13.213" height="18.796" viewBox="0 0 13.213 18.796"><path d="M19.343,10.562a5.725,5.725,0,0,0-.471-.817V5.024A4.748,4.748,0,0,0,17.23,1.472,5.905,5.905,0,0,0,13.27,0h0a5.906,5.906,0,0,0-3.96,1.471A4.748,4.748,0,0,0,7.667,5.024v.687H9.91V5.024a2.846,2.846,0,0,1,.984-2.13,3.541,3.541,0,0,1,2.375-.882,3.2,3.2,0,0,1,3.359,3.012V7.772a7.147,7.147,0,0,0-3.372-.829A6.985,6.985,0,0,0,8.585,8.678a5.5,5.5,0,0,0,0,8.379,7.15,7.15,0,0,0,9.343,0,5.614,5.614,0,0,0,1.936-4.19,5.371,5.371,0,0,0-.519-2.307Zm-6.087,6.22a4.161,4.161,0,0,1-4.363-3.913,4.161,4.161,0,0,1,4.363-3.913,4.161,4.161,0,0,1,4.363,3.913A4.161,4.161,0,0,1,13.256,16.782Zm1.873-3.9a1.763,1.763,0,0,1-1.851,1.66,1.763,1.763,0,0,1-1.851-1.66,1.763,1.763,0,0,1,1.851-1.66,1.763,1.763,0,0,1,1.851,1.66Z" transform="translate(-6.649 0)" fill="#747170"/></svg>