<svg xmlns="http://www.w3.org/2000/svg" width="18.801" height="20.89" viewBox="0 0 18.801 20.89"><path d="M21.212,3.589H16.846a3.121,3.121,0,0,0-5.891,0H6.589A2.1,2.1,0,0,0,4.5,5.678V20.3A2.1,2.1,0,0,0,6.589,22.39H21.212A2.1,2.1,0,0,0,23.3,20.3V5.678A2.1,2.1,0,0,0,21.212,3.589Zm-7.311,0a1.044,1.044,0,1,1-1.044,1.044A1.048,1.048,0,0,1,13.9,3.589Zm0,4.178A3.133,3.133,0,1,1,10.767,10.9,3.129,3.129,0,0,1,13.9,7.767ZM20.167,20.3H7.633V18.838c0-2.089,4.178-3.238,6.267-3.238s6.267,1.149,6.267,3.238Z" transform="translate(-4.5 -1.5)" fill="#747170"/></svg>