<svg xmlns="http://www.w3.org/2000/svg" width="21.094" height="14.766" viewBox="0 0 21.094 14.766"><path d="M3.164,8.578A2.109,2.109,0,1,0,1.055,6.469,2.111,2.111,0,0,0,3.164,8.578Zm14.766,0A2.109,2.109,0,1,0,15.82,6.469,2.111,2.111,0,0,0,17.93,8.578Zm1.055,1.055H16.875a2.1,2.1,0,0,0-1.486.613,4.821,4.821,0,0,1,2.475,3.606h2.175A1.054,1.054,0,0,0,21.094,12.8V11.742A2.111,2.111,0,0,0,18.984,9.633Zm-8.437,0A3.691,3.691,0,1,0,6.855,5.941,3.69,3.69,0,0,0,10.547,9.633Zm2.531,1.055H12.8a5.1,5.1,0,0,1-4.515,0H8.016a3.8,3.8,0,0,0-3.8,3.8v.949A1.582,1.582,0,0,0,5.8,17.016h9.492a1.582,1.582,0,0,0,1.582-1.582v-.949A3.8,3.8,0,0,0,13.078,10.688Zm-7.373-.442a2.1,2.1,0,0,0-1.486-.613H2.109A2.111,2.111,0,0,0,0,11.742V12.8a1.054,1.054,0,0,0,1.055,1.055H3.227A4.833,4.833,0,0,1,5.705,10.246Z" transform="translate(0 -2.25)" fill="#747170"/></svg>