<svg xmlns="http://www.w3.org/2000/svg" width="17.508" height="17.512" viewBox="0 0 17.508 17.512"><path d="M20.563,13.254a2.253,2.253,0,0,1,1.445-2.1,8.93,8.93,0,0,0-1.081-2.6,2.283,2.283,0,0,1-.916.2,2.248,2.248,0,0,1-2.056-3.164,8.9,8.9,0,0,0-2.6-1.081,2.251,2.251,0,0,1-4.2,0,8.93,8.93,0,0,0-2.6,1.081A2.248,2.248,0,0,1,6.492,8.745a2.209,2.209,0,0,1-.916-.2A9.128,9.128,0,0,0,4.5,11.157a2.252,2.252,0,0,1,0,4.2,8.93,8.93,0,0,0,1.081,2.6,2.249,2.249,0,0,1,2.968,2.968,8.982,8.982,0,0,0,2.6,1.081,2.247,2.247,0,0,1,4.195,0,8.93,8.93,0,0,0,2.6-1.081,2.251,2.251,0,0,1,2.968-2.968A8.982,8.982,0,0,0,22,15.36,2.264,2.264,0,0,1,20.563,13.254ZM13.295,16.9a3.647,3.647,0,1,1,3.647-3.647A3.646,3.646,0,0,1,13.295,16.9Z" transform="translate(-4.5 -4.5)" fill="#747170"/></svg>