<svg xmlns="http://www.w3.org/2000/svg" width="19.602" height="16.539" viewBox="0 0 19.602 16.539"><path d="M5.345,2.383a.459.459,0,0,0-.651,0L2.256,4.807,1.387,3.96a.459.459,0,0,0-.651,0l-.6.6a.459.459,0,0,0,0,.651L1.957,7.027a.489.489,0,0,0,.674,0l.6-.6L5.992,3.666a.463.463,0,0,0,0-.651Zm0,6.094a.459.459,0,0,0-.651,0L2.256,10.917l-.869-.846a.459.459,0,0,0-.651,0l-.6.6a.459.459,0,0,0,0,.651l1.817,1.819a.489.489,0,0,0,.674,0l.6-.6L5.992,9.775a.459.459,0,0,0,0-.647ZM2.45,15.113a1.838,1.838,0,1,0,0,3.675,1.838,1.838,0,1,0,0-3.675Zm16.539.613H7.963a.613.613,0,0,0-.613.613v1.225a.613.613,0,0,0,.613.613H18.989a.613.613,0,0,0,.613-.613V16.338A.613.613,0,0,0,18.989,15.725Zm0-12.251H7.963a.613.613,0,0,0-.613.613V5.312a.613.613,0,0,0,.613.613H18.989a.613.613,0,0,0,.613-.613V4.087A.613.613,0,0,0,18.989,3.474Zm0,6.125H7.963a.613.613,0,0,0-.613.613v1.225a.613.613,0,0,0,.613.613H18.989a.613.613,0,0,0,.613-.613V10.212A.613.613,0,0,0,18.989,9.6Z" transform="translate(0 -2.248)" fill="#747170"/></svg>