<svg id="Robi_Logo" data-name="Robi Logo" xmlns="http://www.w3.org/2000/svg" width="184.791" height="161.649" viewBox="0 0 184.791 161.649">
  <path id="Path_1301" data-name="Path 1301" d="M-1031.5,991.786c-4.385-5.019-8.794-10.013-13.446-15.3,4.008-1.11,7.343-2.512,9.572-5.613,4.058-5.648,4.494-11.812,1.789-18.045-2.854-6.58-8.467-9.622-15.349-9.879-8.329-.317-16.677-.05-25.016-.109-1.333-.01-1.645.411-1.64,1.685q.06,24.272,0,48.55c0,1.323.248,1.927,1.734,1.843a53.671,53.671,0,0,1,6.436,0c1.526.1,1.744-.56,1.7-1.853-.079-2.809-.044-5.614-.015-8.423.02-2.3-.783-5.366.381-6.689,1.348-1.536,4.5-.273,6.847-.505a3.7,3.7,0,0,1,3.562,1.585c2.655,3.26,5.831,6.134,8.175,9.587,3.448,5.074,7.739,7.477,13.853,6.267,1.085-.213,2.72.58,3.176-.411S-1030.771,992.624-1031.5,991.786Zm-17.975-23.311c-2.616.248-5.272.045-7.912.045v.109c-2.224,0-4.454-.064-6.679.025-1.244.05-1.729-.243-1.7-1.61.084-4.539.059-9.077.01-13.61-.01-1.05.253-1.442,1.372-1.417,4.945.1,9.9-.069,14.839.218a7.705,7.705,0,0,1,7.635,8.056C-1041.909,964.808-1044.758,968.034-1049.474,968.475Z" transform="translate(1075.59 -834.332)" fill="#fe0000"/>
  <path id="Path_1302" data-name="Path 1302" d="M-851.739,967.081c-2.14-5.351-6.426-8.378-12.06-9.538-6.173-1.268-11.718-.1-16.776,4.623,0-4.434.055-8.448-.02-12.456-.045-2.284,1.011-5.331-.461-6.634-1.268-1.125-4.261-.183-6.466-.392-1.9-.178-2.289.486-2.279,2.3.079,15.013.045,30.025.045,45.037,0,4.722,0,4.722,4.732,4.722,3.894,0,3.889,0,4.256-3.85.01-.114.178-.208.277-.312,7.68,9.359,23.817,5.019,28.043-3.656A23.572,23.572,0,0,0-851.739,967.081Zm-17.51,20.225c-5.881.154-10.538-4.41-10.761-10.543a10.607,10.607,0,0,1,10.1-11.2c5.946-.292,10.6,4.172,10.836,10.38C-858.839,982.182-863.288,987.152-869.248,987.305Z" transform="translate(981.852 -834.191)" fill="#fe0000"/>
  <path id="Path_1303" data-name="Path 1303" d="M-828.986,916.774q-10.418-5.858-20.834-11.719c-6.871-3.889-13.722-7.812-20.612-11.737.324-1.111,1.3-1.3,2.024-1.722q18.649-10.914,37.316-21.8c.49-.286.928-.66,1.391-.993a.679.679,0,0,1,1.089.321,2.857,2.857,0,0,1,.206.9,20.019,20.019,0,0,1,.24,3.694q.019,19.642,0,39.285C-828.166,914.312-828.065,915.657-828.986,916.774Z" transform="translate(972.08 -796.924)" fill="#fe17cf"/>
  <path id="Path_1304" data-name="Path 1304" d="M-871.322,772.028c-.781-.543-.431-1.359-.428-2.043q.088-22.731.235-45.462c0-.138.136-.275.328-.637l41.136,23.888a.9.9,0,0,1-.061.691c-2.411,2.182-5.352,3.54-8.132,5.137-1.715.985-3.491,1.867-5.172,2.919-4.768,2.633-9.407,5.491-14.151,8.167-3.541,1.854-6.92,3.992-10.4,5.955A7.785,7.785,0,0,1-871.322,772.028Z" transform="translate(972.785 -723.886)" fill="#feac14"/>
  <path id="Path_1305" data-name="Path 1305" d="M-960.35,972.1c-10.776-.01-18.5,7.987-18.51,19.2-.02,11.648,7.432,19.348,18.743,19.368,11.619.02,19.278-7.714,19.259-19.447C-940.883,979.973-948.895,972.11-960.35,972.1Zm.377,30.144c-5.856.005-9.934-4.514-9.875-10.94.06-6.159,4.335-10.865,9.865-10.85,5.51.01,9.979,5.024,9.929,11.138C-950.108,997.854-954.186,1002.239-959.973,1002.244Z" transform="translate(1026.786 -849.12)" fill="#fe0000"/>
  <path id="Path_1306" data-name="Path 1306" d="M-795.963,991.044c0-5.441.047-10.883-.031-16.323-.022-1.5.215-2.291,1.964-2.084,2.34.277,5.494-1.01,6.832.511,1.168,1.329.4,4.4.409,6.7.017,9.316-.037,18.632.034,27.947.012,1.565-.309,2.235-1.988,2.048-2.345-.261-5.5,1.007-6.842-.5-1.161-1.3-.357-4.381-.371-6.675C-795.98,998.794-795.963,994.919-795.963,991.044Z" transform="translate(934.634 -849.267)" fill="#fe0101"/>
  <path id="Path_1307" data-name="Path 1307" d="M-786.965,917.351q-.094-23.425-.18-46.851a2.751,2.751,0,0,1,.194-.71,11.746,11.746,0,0,1,7.6,4.154c.681,2.054,1.229,4.11.244,6.233a2.851,2.851,0,0,0-.144,1.217c.014,8.709-.833,17.4-.521,26.118a17.4,17.4,0,0,0,.44,3.412c.076.612-.317.94-.754,1.24a1.28,1.28,0,0,0-.909,1.708A23.283,23.283,0,0,1-786.965,917.351Z" transform="translate(930.058 -797.5)" fill="#b20754"/>
  <path id="Path_1308" data-name="Path 1308" d="M-870.8,812.11l13.433-7.936a1.1,1.1,0,0,0,1.367-.062c1.157-.722,2.155-1.539,3,.54.417,1.024,1.909.725,2.954.732,5.68.039,11.362,0,17.041.029,1.213.006,2.492-.207,3.56.66a5.449,5.449,0,0,1,.507,3.021c-.1,1.329.247,2.713-.486,3.963-1.04.9-2.317.7-3.527.7-6.649.026-13.3.017-19.948.008-1.652,0-3.266.613-4.809.675-2.695.107-5.269,2.2-8.051.569A26.254,26.254,0,0,1-870.8,812.11Z" transform="translate(972.267 -763.968)" fill="#fe7207"/>
  <path id="Path_1309" data-name="Path 1309" d="M-786.294,773.691q12.712,6.9,25.111,14.35a2.371,2.371,0,0,0,1.676.991.191.191,0,0,1,.278.122c.1.518.892.955.3,1.53-.536.524-1.229.318-1.871.1-1.644-1.251-3.454-.549-5.232-.508-4.452.1-8.906.025-13.359.038-1.813.005-3.626-.03-5.437.156-1.165.12-2.342.135-3.045-1.1a93.15,93.15,0,0,1-.154-14.023C-788,774.467-787.87,773.194-786.294,773.691Z" transform="translate(930.597 -748.958)" fill="#fe2807"/>
  <path id="Path_1310" data-name="Path 1310" d="M-860.62,824.635c.568.056,1.137.116,1.706.168a7.061,7.061,0,0,0,1.128.081c.791-3.877,3.668.294,5.437-1.466,1.787-1.778,4.725-.682,7.147-.716,6.9-.1,13.8-.035,20.7-.035,1.239,2.221.645,4.572.491,6.893a1.883,1.883,0,0,1-.538.774c-1.207.7-2.544.514-3.843.535-6.956.113-13.917-.219-20.871.22A117.811,117.811,0,0,1-860.62,824.635Z" transform="translate(967.129 -773.589)" fill="#fe7507"/>
  <path id="Path_1311" data-name="Path 1311" d="M-837.7,838.907a4.836,4.836,0,0,1,3.409-1.012c7.118.048,14.236.023,21.354.023a2.78,2.78,0,0,1,.688,2.271c.032,3.434.059,6.869-.018,10.3-.02.893.251,2.072-1.178,2.3-7.022-3.809-13.987-7.715-20.789-11.906.116-.335.47-.45.659-.716a.65.65,0,0,1,.548-.328.651.651,0,0,0,0-.1,1.242,1.242,0,0,0-.669.586c-.775.442-1.323-.566-2.067-.323A3.83,3.83,0,0,1-837.7,838.907Z" transform="translate(955.564 -781.408)" fill="#fe7a07"/>
  <path id="Path_1312" data-name="Path 1312" d="M-710.8,820.5a.324.324,0,0,1,.086.386c.4,3.624.071,7.26.182,10.884-.823,4.695-.31,9.479-.886,14.2a3.121,3.121,0,0,1-.057.816c-.284,4.351.115,8.711-.132,13.053-.13,2.3-.039,4.877-2.72,6.127a3.739,3.739,0,0,1-3.032-1.183,2.126,2.126,0,0,1-.284-.763c.14-3.21-.446-6.636.387-9.6,2.1-7.465.449-15.132,1.922-22.547.581-2.924,1.135-5.727.06-8.61-.329-1.185.629-1.539,1.325-2.066C-712.945,820.746-712.069,819.716-710.8,820.5Z" transform="translate(895.025 -772.488)" fill="#760bc2"/>
  <path id="Path_1313" data-name="Path 1313" d="M-763.72,916.225c-1.263.475-1.993,1.875-3.46,2a48.719,48.719,0,0,1-.326-11.008c.292-5.744.084-11.513.074-17.272a12.718,12.718,0,0,1,.639-4.609c-.036-.256-.057-.515-.079-.773.181-.935.974-1.074,1.7-1.3a3.353,3.353,0,0,1,2.223.582c.6.425,1.093.893.678,1.72a7.115,7.115,0,0,0-.709,3.839q0,7.918,0,15.836a26.437,26.437,0,0,1-1.121,9.006C-764.4,915.07-762.918,915.4-763.72,916.225Z" transform="translate(920.227 -804.281)" fill="#c1055d"/>
  <path id="Path_1314" data-name="Path 1314" d="M-743.938,816.863c-1.215-.264-1.86.976-2.924,1.11-2.111.538-4.252.195-6.38.218-8.413.093-16.813.787-25.234.5a17.335,17.335,0,0,1-3.449-.265c-.989-.235-1.7-.684-1.4-1.88.646-1.233,1.838-1.271,2.992-1.306a64.007,64.007,0,0,1,7.413.005c6.13.527,12.1-1.3,18.2-1.075a5.471,5.471,0,0,0,2.8-.891c.648-.383,1.385-.1,2.062-.274C-747.813,814.172-745.348,814.708-743.938,816.863Z" transform="translate(928.167 -768.848)" fill="#fe3f06"/>
  <path id="Path_1315" data-name="Path 1315" d="M-752.907,792.365c-.367.557-.944.448-1.48.468-9.187,1.179-18.384.862-27.585.212-1.125-.08-2.3-.381-3.005,1.01-.3.585-1.091.029-1.613.281-.808.4-1.148-.247-1.572-.7a.793.793,0,0,1-.39-.362q-.016-1.46-.031-2.92c-1.46-2.869-.533-5.93-.72-8.9.2-2.973-.77-6.046.759-8.9a2.164,2.164,0,0,0,.069-.447l1.569.845c-1.568.451-1.12,1.815-1.138,2.819-.077,4.366-.032,8.734-.031,13.1.341.628.188,1.176,1.573,1.208,7.522.175,15-.745,22.508-.631a27.722,27.722,0,0,1,3.166.415c1.517.324.557-1.036.987-1.451A46.008,46.008,0,0,1-752.907,792.365Z" transform="translate(931.209 -748.212)" fill="#fe3206"/>
  <path id="Path_1316" data-name="Path 1316" d="M-760.491,918.043c-1.271-1.238-.62-2.752-.463-4.111.937-8.141.247-16.307.462-24.457.031-1.148-.2-2.43,1.51-2.6,1.275-.169,2.28.1,2.527,1.575a57.549,57.549,0,0,0-.374,10.183c.418,5.425-1.182,10.765-.516,16.176.136,1.107-.586,1.608-1.175,2.254C-759.107,917.534-759.635,918.119-760.491,918.043Z" transform="translate(916.998 -806.099)" fill="#c70561"/>
  <path id="Path_1317" data-name="Path 1317" d="M-741.875,915.541a6.874,6.874,0,0,1-2.519,1.44,4.349,4.349,0,0,1-1.7-3.659c0-5.831.767-11.642.461-17.481a1.48,1.48,0,0,1,.645-1.267,1.825,1.825,0,0,1,1.125-.345,4.2,4.2,0,0,1,1.651.758c.2.107.4.23.593.352.627.463,1.507.6,1.868,1.416a1.682,1.682,0,0,1-.072.685,9.469,9.469,0,0,0-.448,4.591c.189,3.783-.856,7.5-.5,11.282C-740.678,914.3-742.178,914.469-741.875,915.541Z" transform="translate(909.348 -809.83)" fill="#d9036d"/>
  <path id="Path_1318" data-name="Path 1318" d="M-747.327,893.5c-.225.329-.672.68-.642.984.536,5.421-.036,10.817-.391,16.211a13.562,13.562,0,0,0,1.054,5.213,12.2,12.2,0,0,1-3.451,2.059,4.732,4.732,0,0,1-.985-4.338c.652-3.906.325-7.875.224-11.806-.079-3.078,1.065-5.928,1.191-8.942.013-.311.4-.493.7-.656a2.04,2.04,0,0,1,1.156-.068C-747.876,892.422-747.2,892.621-747.327,893.5Z" transform="translate(912.26 -808.76)" fill="#d20468"/>
  <path id="Path_1319" data-name="Path 1319" d="M-769.248,885.935c.381.185.925.656.651.86-1.851,1.381-1.089,3.32-1.114,5.021-.084,5.613.4,11.274-.184,16.827-.386,3.68.845,7.344-.336,10.94-.628.163-.684,1.135-1.487,1.049-1.671.238-1.671.238-1.988-.511a1.026,1.026,0,0,1,.991-.5c.458-9.28.093-18.567.253-27.849.015-.9-.034-1.81.03-2.712C-772.293,887.095-771.448,885.819-769.248,885.935Z" transform="translate(923.278 -805.642)" fill="#bc065a"/>
  <path id="Path_1320" data-name="Path 1320" d="M-751.12,891.222c-1.341,1.189-.652,2.9-1.05,4.348-1.213,4.4-.515,8.974-.519,13.471,0,2.565-1.168,5.14-.017,7.7l-3.026,1.757c.737-1.792.029-3.727.366-5.46,1.33-6.832-.147-13.8,1.2-20.594a.678.678,0,0,0-.337-.783c-2.02-1.677-.08-1.557.858-1.893a1.912,1.912,0,0,1,1.3.054C-751.694,890.079-751.093,890.379-751.12,891.222Z" transform="translate(914.209 -807.533)" fill="#cd0465"/>
  <path id="Path_1321" data-name="Path 1321" d="M-738.16,918.219c-.2-.251-.627-.636-.569-.735,2.213-3.774.887-7.98,1.476-11.945a10.965,10.965,0,0,0,.129-3.639,1.968,1.968,0,0,1,.862-2.159.7.7,0,0,1,.648-.189,2.447,2.447,0,0,1,1.356,1.192,3.472,3.472,0,0,1,.712,2.038c-.1,3.177-.047,6.356-.053,9.533,0,1.286-1.445,2.264-.686,3.661Z" transform="translate(905.633 -812.508)" fill="#e10272"/>
  <path id="Path_1322" data-name="Path 1322" d="M-711.68,878.119c2.429-1.076,2.3-3.423,2.406-5.425.2-3.852.044-7.722.069-11.584.005-.788-.271-1.667.6-1.9.141,2,.116,4.194.123,5.611-.126-1.486.217-3.768-.123-5.611-.726-1.99-1.089-3.555.057-5.07a2.014,2.014,0,0,0,.256-1.9c-.93-2.531-.456-4.935.459-7.33.668.794.314,1.736.326,2.6.106,7.716-.138,15.435.14,23.15a58.847,58.847,0,0,1-.079,10C-709.306,880.566-710.9,880.015-711.68,878.119Z" transform="translate(891.983 -784.949)" fill="#7f0cc5"/>
  <path id="Path_1323" data-name="Path 1323" d="M-730.8,916.931c-.26-.742-2.081-1.348-.165-2.316.238-.12.174-.919.18-1.4.039-3.2-.135-6.415.2-9.58.1-.985-1.5-1.06-.607-1.982,1.092-.625,1.821.24,2.666.64.643.617,1.921.7,1.73,2.032-2,1.945-1.69,4.261-.824,6.5.593,1.535.981,2.9-.164,4.288A9.548,9.548,0,0,1-730.8,916.931Z" transform="translate(902.151 -813.463)" fill="#e70377"/>
  <path id="Path_1324" data-name="Path 1324" d="M-724.983,917.6c.061-1.457.339-2.789-.7-4.249-1.394-1.962-.125-6.047,1.717-6.725a.89.89,0,0,1,.919-.229,3.092,3.092,0,0,1,1.494,1.272q.028.2.05.4c.027,2.224,1.089,4.687-1.457,6.337-.051.033.41.224.578.437a1.19,1.19,0,0,1,.33,1.111A9.482,9.482,0,0,1-724.983,917.6Z" transform="translate(899.345 -815.951)" fill="#ed027a"/>
  <path id="Path_1325" data-name="Path 1325" d="M-718.566,917.695c-.74-.831-1.218-1.352-.281-2.7s.123-3.491.83-5.183l2.459,1.052,4.235,2.549A59.134,59.134,0,0,1-718.566,917.695Z" transform="translate(895.861 -817.691)" fill="#f4047f"/>
  <path id="Path_1326" data-name="Path 1326" d="M-703.446,858.892c-.638-.8-.352-1.739-.358-2.614-.053-7.712-.075-15.425-.107-23.138q.08-5.781.163-11.563c.633,4.34.215,8.711.307,13.065C-703.273,842.721-703.427,850.808-703.446,858.892Z" transform="translate(888.063 -773.175)" fill="#8117c6"/>
  <path id="Path_1327" data-name="Path 1327" d="M-788.744,852.284c.874-.8.486-1.855.5-2.8.041-4.027.014-8.054.012-12.082q.01-.247.015-.5a.631.631,0,0,1,.7.217,3.562,3.562,0,0,1,.437,1.922c.027.936-.011,1.873.043,2.809.027.551-.021,1.1,0,1.651q.056,1.7.02,3.409c-.054,1.767.246,3.552-.269,5.3a1.188,1.188,0,0,1-.625.62l-.57-.062Z" transform="translate(930.865 -780.897)" fill="#fc8425"/>
  <path id="Path_1328" data-name="Path 1328" d="M-775.352,954.94c.454.981,1.539-.492,1.988.511a4.849,4.849,0,0,1-2.5,1.382c-.254-.5-1.26-.469-1.083-1.107C-776.773,955.1-775.991,955-775.352,954.94Z" transform="translate(924.923 -840.462)" fill="#b70657"/>
  <path id="Path_1329" data-name="Path 1329" d="M-831.767,842.247l-.494.495a2.594,2.594,0,0,1-1.53-.88C-832.936,841.043-832.454,842.18-831.767,842.247Z" transform="translate(953.593 -783.26)" fill="#fe7507"/>
  <path id="Path_1330" data-name="Path 1330" d="M-731.982,803.759c-1.145.661-1.4-.184-1.676-.991A3.024,3.024,0,0,1-731.982,803.759Z" transform="translate(903.072 -763.686)" fill="#fe2c06"/>
  <path id="Path_1331" data-name="Path 1331" d="M-787.076,860.741l.231-.522c1.648-1.97,4.057-2.8,6.145-4.121,2.435-1.348,4.62-3.229,7.54-3.551a2.04,2.04,0,0,1,1.173,2.247,66.056,66.056,0,0,0-.953,11.774,2.1,2.1,0,0,1-.318.925c-.378.511-.926.345-1.428.356-1.339.157-2.335-.616-3.383-1.248a20.981,20.981,0,0,1-1.872-1.538,38.4,38.4,0,0,0-6.976-3.973A1.278,1.278,0,0,0-787.076,860.741Z" transform="translate(930.023 -788.801)" fill="#3600af"/>
  <path id="Path_1332" data-name="Path 1332" d="M-815.97,789.918q0,4.459.007,8.918-10.48,0-20.961,0a7.1,7.1,0,0,1-2.876-.493c-1.169-.5-1.232-1.015-.068-1.722-1.274-.512-1.7.5-2.424.773-.669.256-1.263.609-1.4-.5q6.511-3.7,13.026-7.4a14.143,14.143,0,0,1,1.327-.587,6.831,6.831,0,0,1,2.362.7c.189.1.373.206.561.3A16.658,16.658,0,0,1-815.97,789.918Z" transform="translate(958.588 -756.694)" fill="#fe6d07"/>
  <path id="Path_1333" data-name="Path 1333" d="M-812.237,781.89a2.845,2.845,0,0,1-2.486-1.005L-801.308,773q-.022,4.445-.046,8.89c-2.408-.174-4.853.38-7.235-.363-.976-.3-1.417.552-2.084.951s-1.617,1.11-1.565-.59l.156-.073-.135-.1Z" transform="translate(943.972 -748.667)" fill="#fe6907"/>
  <path id="Path_1334" data-name="Path 1334" d="M-773.3,877.809a3.27,3.27,0,0,1,1.949,1.064c1.062.7.677,2.141,1.5,2.965h.495c-2.189.511-2.531,2.022-2.513,4.04.084,8.951.041,17.9.029,26.853,0,1.032.291,2.2-.984,2.8-1.025-.708-.971-1.755-1.008-2.846-.313-9.107.357-18.2.628-27.288C-773.121,882.846-772.392,880.338-773.3,877.809Z" transform="translate(923.379 -801.546)" fill="#b70657"/>
  <path id="Path_1335" data-name="Path 1335" d="M-787.245,825.786l-.46,0q-.008-3.469-.017-6.937.014-2.007.029-4.015.239.024.48.041a7.844,7.844,0,0,1,.684,3.755c0,.555-.006,1.111-.011,1.666-.03,1.08.031,2.161-.018,3.242a4.008,4.008,0,0,1-.391,1.967C-787.046,825.6-787.146,825.694-787.245,825.786Z" transform="translate(930.349 -769.775)" fill="#fe7224"/>
  <path id="Path_1336" data-name="Path 1336" d="M-759.452,806.276c-4.735.756-9.509.38-14.266.51-2.249.061-4.512-.365-6.715.835a3.817,3.817,0,0,1-3.765-.414c-1.17-.827-1.708-.174-2.5.76v-2.683c1.609.811,3.217-.05,4.828-.028,5.364.074,10.73.047,16.1.012a7.228,7.228,0,0,0,3.052-.527C-761.64,804.266-760.488,805.577-759.452,806.276Z" transform="translate(929.833 -764.629)" fill="#fe2c06"/>
  <path id="Path_1337" data-name="Path 1337" d="M-827.375,842.379l-2.257-.6c.125-.2.21-.535.381-.589C-828.374,840.913-827.9,841.453-827.375,842.379Z" transform="translate(951.494 -783.033)" fill="#fe7507"/>
  <path id="Path_1338" data-name="Path 1338" d="M-719.082,866.9a2.208,2.208,0,0,1-1.517-.888c-1.21-2.343-.7-4.845-.508-7.26.391-4.9.787-9.782,1.532-14.665.555-3.638.158-7.509.312-11.273.085-2.084.009-4.206.818-6.2a2.877,2.877,0,0,1,.191-.731.712.712,0,0,1,.964-.24,3.237,3.237,0,0,0,2.121.444c-.642.928-2.083,1.614-.5,2.793.384.285.274,1.6.021,2.314-2.192,6.159-1.228,12.542-1.421,18.838-.043,1.408-.006,2.742-.964,3.971-.928,1.191-.5,2.711-.526,4.094C-718.612,861.036-718.392,863.992-719.082,866.9Z" transform="translate(896.877 -775.178)" fill="#6f0ac0"/>
  <path id="Path_1339" data-name="Path 1339" d="M-749.314,822.73l-.767.132c-2.037,1.7-4.59,1.372-6.837,1.242-8.229-.478-16.4.686-24.614.529-1.739-.033-2.884-.343-3.162-2.2a3.116,3.116,0,0,1,.182-2.413.532.532,0,0,1,.725-.153c-.274,1.471.963,1.432,1.7,1.418,6.732-.127,13.462.4,20.2-.287a64.049,64.049,0,0,1,11.334.073c.935.071,2.131-.881,2.952.328Z" transform="translate(928.9 -772.269)" fill="#fe4505"/>
  <path id="Path_1340" data-name="Path 1340" d="M-754.266,867.737l-.915-.425-2.552-1.459-1.05-.935q.016-.173.031-.346c1.518-5.454,2.745-10.932,1.361-16.626.168-1.479,1.544-1.63,2.481-2.267a4.221,4.221,0,0,1,1.7-.517c1.166.114,1.284.888,1.017,1.774a43.42,43.42,0,0,0-1.428,13.826c.047,1.761-.555,3.571.355,5.321C-752.836,866.918-753.5,867.439-754.266,867.737Z" transform="translate(915.748 -785.075)" fill="#4202b3"/>
  <path id="Path_1341" data-name="Path 1341" d="M-767.558,882.922c-.567-.185-2.144.469-.93-1.183.547-.744-1.686-.755-.573-1.782l2.991,1.479.072.329C-766.238,882.529-767.226,882.284-767.558,882.922Z" transform="translate(921.093 -802.63)" fill="#bc065a"/>
  <path id="Path_1342" data-name="Path 1342" d="M-762.631,883.271c-.018-.111-.043-.22-.072-.329h1.485c.437.171.7.439.517.946l-.059.092Z" transform="translate(917.726 -804.136)" fill="#4202b3"/>
  <path id="Path_1343" data-name="Path 1343" d="M-784.043,816.029h-.494c-1.118-.178-.885-.807-.5-1.487.433-.525.32-1.538,1.288-1.534.134,0,.266.678.543,1.208-.163-1.764.709-1.838,2.013-1.683,7.958.942,15.955.4,23.935.494,1.183.013,2.575.574,3.545-.771.05-.07,1.387-.312,1.375.8a4.463,4.463,0,0,1-3.5,1.467c-8.359.44-16.693,1.495-25.09,1.016A5.043,5.043,0,0,0-784.043,816.029Z" transform="translate(929.155 -768.436)" fill="#fe3906"/>
  <path id="Path_1344" data-name="Path 1344" d="M-785.709,815.9c.016.546-.085,1.13.5,1.487q0,1.238,0,2.476l-.31.1c-.595-.14-.753-.741-1.15-1.089q-.011-1.986-.021-3.972C-785.815,814.688-786.342,815.863-785.709,815.9Z" transform="translate(929.831 -769.792)" fill="#fe3f06"/>
  <path id="Path_1345" data-name="Path 1345" d="M-734.793,865.812l-.513,0c-.013-.127-.028-.255-.045-.381a5.87,5.87,0,0,0-.933-2.985c-.469-.618-1.045-1.361.158-1.987.648-.337.138-1.052.236-1.581,1.5-8.033.472-16.2,1.286-24.27a2.858,2.858,0,0,1,1.784-1.927,2.162,2.162,0,0,1,2.286-.091,1.681,1.681,0,0,1,.516,1.571c-1.21,6.466-1.056,13.049-1.369,19.568-.163,3.378-.777,6.773-.456,10.189C-731.686,865.6-732.536,866.113-734.793,865.812Z" transform="translate(904.678 -778.582)" fill="#5e06bb"/>
  <path id="Path_1346" data-name="Path 1346" d="M-735.94,836.583c.967,1.383.075,2.84.077,4.242.01,6.235.532,12.5-.879,18.683a4.254,4.254,0,0,0,.85,3.856c-.9.936-1.281-.711-2.081-.123.632,1.334,3.02,2.27,1.119,4.245a3.605,3.605,0,0,1-1.925-1.1c-.955-1.414-.844-2.953-.981-4.6-.364-4.375,1.014-8.584.746-12.884-.174-2.779-.688-5.52.4-8.241a3.253,3.253,0,0,0-.263-2.164c-.195-1.42.979-1.613,1.858-2.075A1.186,1.186,0,0,1-735.94,836.583Z" transform="translate(906.182 -780.634)" fill="#5805b9"/>
  <path id="Path_1347" data-name="Path 1347" d="M-741.543,839.878c1.76,1.044,1.095,2.713.55,3.85a7.244,7.244,0,0,0-.459,4.3c.366,2.987.929,5.948-.511,8.877a4.787,4.787,0,0,0,.058,3.163c.389,1.518.725,3.106-.183,4.518-.893,1.389,1.468,2.207.473,3.521h0c-.508-.3-.867-.873-1.555-.836l-.917-.171-1.053-.947c-.778-3.282.172-6.531.226-9.8.047-2.868.585-5.716.86-8.578.148-1.531.241-2.932-.712-4.232a1.75,1.75,0,0,1-.311-1.85C-744.229,840.45-743.244,839.467-741.543,839.878Z" transform="translate(909.018 -782.361)" fill="#5104b7"/>
  <path id="Path_1348" data-name="Path 1348" d="M-740.852,895.022c1.06-.728,1.141.363,1.555.836A2.062,2.062,0,0,1-740.852,895.022Z" transform="translate(906.701 -810.108)" fill="#5805b9"/>
  <path id="Path_1349" data-name="Path 1349" d="M-746.885,843.5c-.035.16-.156.393-.092.47,2.74,3.258,1,6.857.78,10.328-.264,4.189-.594,8.374-.91,12.56-.028.371.224.839-.286,1.092l-.791-.106a3.134,3.134,0,0,0-1.606-1.027c.235-.418.757-.921.662-1.241-1.288-4.343-.711-8.692-.218-13.057.265-2.348-.378-4.828,1.2-6.976.269-.367.064-.988-.681-.917a.571.571,0,0,1-.021-.655A1.635,1.635,0,0,1-746.885,843.5Z" transform="translate(911.272 -784.149)" fill="#4a03b5"/>
  <path id="Path_1350" data-name="Path 1350" d="M-732.707,864.264c1.568-.127,2.939-.4,2-2.528a1.287,1.287,0,0,1-.015-.734c1.393-6.483.361-13.133,1.367-19.652a59.941,59.941,0,0,0,.233-6.612c.054-1.3,1.413-2.495.3-3.886.4-1.429,1.454-1.735,2.765-1.595a1.3,1.3,0,0,1,.967,1.2,27.086,27.086,0,0,1-1.141,9.224,3.725,3.725,0,0,0-.22,1.937c.763,3.309.079,6.549-.521,9.762-.761,4.073-.347,8.193-.746,12.27-.1,1,.258,2.48-1.515,2.593l-2.408-1.018Z" transform="translate(902.592 -777.034)" fill="#6408be"/>
  <path id="Path_1351" data-name="Path 1351" d="M-705.222,873.11v7.182l-.187.013v-7.363Z" transform="translate(888.819 -799.091)" fill="#760bc2"/>
  <path id="Path_1352" data-name="Path 1352" d="M-725.685,865.015c1.332-1.1.931-2.727.91-4.032a77.063,77.063,0,0,1,1.5-16.1,5.856,5.856,0,0,0,.011-2.212c-.953-4.777,1.319-9.185,1.529-13.824-.285-1.012.452-1.45,1.09-1.944.11-.036.221-.071.332-.106.291.082.874.2.673.463-1.445,1.88-.913,4.067-1.122,6.15-.465,4.631.509,9.344-.524,13.906-1.447,6.389-1.127,12.871-1.488,19.32l-.9-.155Z" transform="translate(899.049 -775.811)" fill="#6a09bf"/>
  <path id="Path_1353" data-name="Path 1353" d="M-765.476,839.407l-1.87.786c-.431-.531-.012-.888.257-1.388-5.853.217-11.726-.712-17.565.382a1.241,1.241,0,0,1-.639-.065c-.356-.51-.966-.688-1.425-1.067q-.019-.992-.04-1.984l.048.013a8.139,8.139,0,0,1,4.264-.727c6.872-.08,13.747.225,20.619-.1.606-.029,1.4-.208,1.37.854l-1.931,1.469A10.227,10.227,0,0,0-765.476,839.407Z" transform="translate(929.863 -780.061)" fill="#fe5905"/>
  <path id="Path_1354" data-name="Path 1354" d="M-768.835,844.958l-2.643,1.882a1.546,1.546,0,0,1-1.846.8,38.551,38.551,0,0,0-10.437.035c-.58.074-1.97-.731-2.918-1.269q0-.745,0-1.491c.723-.485.067-2,1.471-1.975,1.393.7,2.873.269,4.311.3,2.882.062,5.776-.147,8.645.107C-771.014,843.456-769.341,843.109-768.835,844.958Z" transform="translate(929.823 -783.954)" fill="#fe6404"/>
  <path id="Path_1355" data-name="Path 1355" d="M-786.679,849.593c.739.564,2.164-1.52,2.613.746.091.459.206-.764.448-.667,3.4,1.352,7.145-1.126,10.455.982a.271.271,0,0,1-.175.417l-6.938,3.837a5.925,5.925,0,0,0-4.8-.964,1.427,1.427,0,0,1-1.6-.876Q-786.677,851.329-786.679,849.593Z" transform="translate(929.823 -787.14)" fill="#fd6c04"/>
  <path id="Path_1356" data-name="Path 1356" d="M-786.673,856.946a2.724,2.724,0,0,0,2.09.278c1.7-.364,3.418-.446,4.31,1.562l-6.369,3.652Q-786.657,859.692-786.673,856.946Z" transform="translate(929.82 -791.02)" fill="#fb7205"/>
  <path id="Path_1357" data-name="Path 1357" d="M-785.206,841.8c-.714.491-.447,1.715-1.471,1.975q0-1.483,0-2.967C-785.856,840.646-784.975,840.4-785.206,841.8Z" transform="translate(929.823 -782.814)" fill="#fe5e04"/>
  <path id="Path_1358" data-name="Path 1358" d="M-759.752,851.854a1.668,1.668,0,0,0,.175-.417l1.685-.626c1.04.367.476,2.28,2.052,2.131-.6.551-1.228.889-.976,2.061.785,3.654-.836,7.145-1.056,10.75a2.165,2.165,0,0,1-1.34,1.925l-.517-.947c.085-4.333-.341-8.7.99-12.954A1.624,1.624,0,0,0-759.752,851.854Z" transform="translate(916.237 -787.925)" fill="#3c00b1"/>
  <path id="Path_1359" data-name="Path 1359" d="M-809.714,789.533c.055-.54-.134-1.187.6-1.4a.693.693,0,0,1,.5.243C-808.713,789-809.224,789.253-809.714,789.533Z" transform="translate(941.445 -756.3)" fill="#fe6d07"/>
  <path id="Path_1360" data-name="Path 1360" d="M-753.632,827.344a5.5,5.5,0,0,0-2.405,1.342l-1.86.81c-8.031.374-16.063.027-24.095.042-1.573,0-3.025-1.038-4.666-.641V825.43c.174-.187.527-.327.614-.187.812,1.294.5-.4.849-.306.452,1.353,1.146,2.132,2.766,1.541a7.389,7.389,0,0,1,2.207-.057c6.724-.177,13.453-.559,20.17-.42,2.043.043,4.138-.775,6.258.17.626.279,1.6-1.332,2.8-.71a2.672,2.672,0,0,0-.08.4l.034-.007A5.467,5.467,0,0,1-753.632,827.344Z" transform="translate(929.813 -774.868)" fill="#fe4c05"/>
  <path id="Path_1361" data-name="Path 1361" d="M-786.659,832.349c1.809-1.312,3.615.037,5.424.035,7.437-.008,14.874.107,22.312.143.453,0,.795,0,1.025.421l-1.673,1.321-.835.1c-1.833-.4-3.66.1-5.509.039-5.855-.206-11.722-.082-17.584-.112-1.055,0-2.1.515-3.16.05Q-786.66,833.347-786.659,832.349Z" transform="translate(929.814 -778.32)" fill="#fe5305"/>
  <path id="Path_1362" data-name="Path 1362" d="M-785.2,823.926v1.522c-.688-.219-.69-1.184-1.464-1.028q0-.743,0-1.486C-785.9,822.867-785.708,823.632-785.2,823.926Z" transform="translate(929.813 -773.857)" fill="#fe4505"/>
  <path id="Path_1363" data-name="Path 1363" d="M-767.385,843.938a5.7,5.7,0,0,0-3.46-1c-4.154.089-8.316-.319-12.469.261-.952.133-.177-.878-.442-1.279a4.561,4.561,0,0,1,3.375-.951c5.2-.086,10.393-.037,15.773-.037l-1.247,2.134a1.163,1.163,0,0,1-.069.339Z" transform="translate(928.373 -782.933)" fill="#fe5e04"/>
  <path id="Path_1364" data-name="Path 1364" d="M-720,828.28a5.635,5.635,0,0,1,2.592-1.492l-1.456,2.056Z" transform="translate(896.18 -775.804)" fill="#6f0ac0"/>
</svg>
